<?xml version="1.0" encoding="utf-8"?>
<!-- Generator: Adobe Illustrator 16.0.0, SVG Export Plug-In . SVG Version: 6.00 Build 0)  -->
<!DOCTYPE svg PUBLIC "-//W3C//DTD SVG 1.1//EN" "http://www.w3.org/Graphics/SVG/1.1/DTD/svg11.dtd">
<svg version="1.1" id="Layer_1" xmlns="http://www.w3.org/2000/svg" xmlns:xlink="http://www.w3.org/1999/xlink" x="0px" y="0px"
	 width="610px" height="200px" viewBox="0 0 610 200" enable-background="new 0 0 610 200" xml:space="preserve">
<g>
	<g>
		<path fill="#4554A4" d="M104.457,114.693L86.01,145.336h9.316c2.205,0,4.944-1.546,6.081-3.445l7.848-13.06
			c0.927-1.915,0.896-4.699-0.164-6.465L104.457,114.693z"/>
		<path fill="#4554A4" d="M95.087,99.425c1.171,1.949,1.171,5.139,0,7.094L73.76,142.176c-0.824,1.762,0.033,3.16,2.149,3.16h8.869
			l18.989-31.543L95.087,99.425z"/>
		<path fill="#4554A4" d="M77.112,60.802c-2.26,0-3.157,1.587-1.996,3.52l34.371,57.095c1.083,1.804,2.005,3.281,1.06,5.237
			l7.841-12.029l-32.47-53.823H77.112z"/>
		<path fill="#4554A4" d="M123.878,99.644l-21.226-35.338c-1.172-1.951-3.997-3.553-6.271-3.553h-9.602l32.135,53.377l4.964-7.38
			C125.053,104.792,125.053,101.596,123.878,99.644z"/>
	</g>
	<circle fill="#4554A4" cx="20.193" cy="44.038" r="8.357"/>
	<circle fill="#4554A4" cx="20.193" cy="157.859" r="8.357"/>
	<line fill="none" stroke="#4554A4" stroke-width="2" stroke-miterlimit="10" x1="20.193" y1="44.038" x2="77.6" y2="62.605"/>
	<line fill="none" stroke="#4554A4" stroke-width="2" stroke-miterlimit="10" x1="20.193" y1="157.859" x2="77.6" y2="142.823"/>
	<line fill="none" stroke="#4554A4" stroke-width="2" stroke-miterlimit="10" x1="124.76" y1="102.851" x2="145.297" y2="102.851"/>
	<g>
		<g>
			<path fill="#4554A4" d="M225.214,115.783"/>
			<path fill="#4554A4" d="M152.777,98.271h17.205v21.505c-4.674,1.603-9.804,2.397-15.413,2.397c-6.14,0-10.889-1.78-14.248-5.342
				c-3.36-3.563-5.029-8.654-5.029-15.261c0-6.43,1.831-11.434,5.509-15.02c3.674-3.588,8.817-5.356,15.438-5.356
				c2.512,0,4.874,0.227,7.097,0.707c2.24,0.468,4.184,1.062,5.84,1.782l-3.425,8.451c-2.868-1.417-6.024-2.124-9.462-2.124
				c-3.133,0-5.57,1.036-7.288,3.071c-1.731,2.048-2.577,4.963-2.577,8.769c0,3.727,0.769,6.568,2.336,8.524
				c1.541,1.959,3.776,2.92,6.709,2.92c1.604,0,3.081-0.141,4.42-0.458v-6.239h-7.11V98.271z"/>
			<path fill="#4554A4" d="M198.532,101.229c0-3.665-0.719-6.368-2.159-8.136c-1.441-1.756-3.652-2.641-6.594-2.641h-3.134v22.337
				h2.402c3.283,0,5.683-0.95,7.2-2.856C197.775,108.05,198.532,105.132,198.532,101.229 M209.711,100.85
				c0,6.645-1.818,11.775-5.494,15.375c-3.652,3.6-8.805,5.395-15.438,5.395h-12.897V81.748h13.794
				c6.39,0,11.332,1.644,14.816,4.915C207.981,89.924,209.711,94.661,209.711,100.85"/>
			<path fill="#4554A4" d="M230.632,98.271h17.22v21.505c-4.675,1.603-9.816,2.397-15.412,2.397c-6.141,0-10.891-1.78-14.251-5.342
				c-3.348-3.563-5.027-8.654-5.027-15.261c0-6.43,1.83-11.434,5.506-15.02c3.665-3.588,8.817-5.356,15.438-5.356
				c2.501,0,4.877,0.227,7.113,0.707c2.21,0.468,4.157,1.062,5.81,1.782l-3.408,8.451c-2.868-1.417-6.028-2.124-9.463-2.124
				c-3.147,0-5.571,1.036-7.301,3.071c-1.708,2.048-2.566,4.963-2.566,8.769c0,3.727,0.771,6.568,2.324,8.524
				c1.555,1.959,3.79,2.92,6.721,2.92c1.604,0,3.084-0.141,4.423-0.458v-6.239h-7.126V98.271z"/>
		</g>
	</g>
	
		<line fill="none" stroke="#4554A4" stroke-width="2" stroke-miterlimit="10" x1="163.846" y1="102.851" x2="184.384" y2="102.851"/>
	
		<line fill="none" stroke="#4554A4" stroke-width="2" stroke-miterlimit="10" x1="200.356" y1="101.684" x2="220.895" y2="101.684"/>
	
		<line fill="none" stroke="#4554A4" stroke-width="2" stroke-miterlimit="10" x1="239.751" y1="101.684" x2="260.289" y2="101.684"/>
	<circle fill="#4554A4" cx="263.905" cy="101.684" r="8.357"/>
	
		<line fill="none" stroke="#4554A4" stroke-width="2" stroke-miterlimit="10" x1="263.905" y1="100.757" x2="314.186" y2="136.978"/>
	<line fill="none" stroke="#4554A4" stroke-width="2" stroke-miterlimit="10" x1="264.861" y1="101.684" x2="314.186" y2="62.605"/>
	<circle fill="#4554A4" cx="314.185" cy="62.605" r="8.357"/>
	<circle fill="#4554A4" cx="314.185" cy="136.978" r="8.357"/>
	<g>
		<path fill="#4554A4" d="M354.027,95.876V68.617h9.361c3.333,0,6.077,1.065,8.237,3.192c2.159,2.128,3.235,4.858,3.235,8.191v4.512
			c0,3.345-1.076,6.075-3.235,8.191c-2.16,2.115-4.904,3.173-8.237,3.173H354.027z M359.493,72.829v18.834h3.612
			c1.96,0,3.496-0.66,4.604-1.981c1.113-1.322,1.669-3.05,1.669-5.182v-4.545c0-2.107-0.556-3.821-1.669-5.143
			c-1.108-1.322-2.645-1.983-4.604-1.983H359.493z"/>
		<path fill="#4554A4" d="M395.907,83.895h-11.29v7.768h13.199v4.213h-18.668V68.617h18.63v4.212h-13.161v6.854h11.29V83.895z"/>
		<path fill="#4554A4" d="M410.417,88.632l0.339,1.477h0.108l0.32-1.441l5.934-20.051h5.766l-9.267,27.259H408l-9.249-27.259h5.767
			L410.417,88.632z"/>
		<path fill="#4554A4" d="M442.449,84.549h-11.42v11.327h-5.467V68.617h18.797v4.212h-13.33v7.508h11.42V84.549z"/>
		<path fill="#4554A4" d="M464.444,83.895h-11.289v7.768h13.199v4.213h-18.666V68.617h18.631v4.212h-13.164v6.854h11.289V83.895z"/>
		<path fill="#4554A4" d="M484.42,88.761c0-1.048-0.372-1.89-1.112-2.527c-0.742-0.637-2.044-1.235-3.907-1.796
			c-3.242-0.937-5.695-2.046-7.354-3.333c-1.66-1.287-2.489-3.045-2.489-5.278c0-2.235,0.949-4.061,2.853-5.477
			c1.906-1.416,4.336-2.125,7.295-2.125c2.995,0,5.435,0.794,7.318,2.386c1.887,1.593,2.795,3.555,2.733,5.889l-0.035,0.111h-5.301
			c0-1.261-0.422-2.279-1.263-3.06c-0.842-0.781-2.024-1.171-3.549-1.171c-1.46,0-2.588,0.325-3.389,0.975
			c-0.798,0.648-1.196,1.479-1.196,2.489c0,0.924,0.428,1.685,1.28,2.275c0.855,0.593,2.331,1.221,4.43,1.882
			c3.009,0.835,5.282,1.941,6.833,3.314c1.545,1.373,2.322,3.175,2.322,5.41c0,2.334-0.923,4.177-2.761,5.523
			c-1.842,1.348-4.273,2.022-7.293,2.022c-2.971,0-5.562-0.764-7.771-2.293c-2.209-1.528-3.283-3.672-3.22-6.431l0.037-0.112h5.317
			c0,1.622,0.497,2.811,1.491,3.566c0.988,0.755,2.371,1.132,4.145,1.132c1.484,0,2.619-0.304,3.408-0.917
			C484.026,90.603,484.42,89.786,484.42,88.761z"/>
		<path fill="#4554A4" d="M512.861,72.829h-7.715v23.047h-5.469V72.829h-7.676v-4.212h20.859V72.829z"/>
		<path fill="#4554A4" d="M367.532,125.015h-8.246l-1.472,5.082h-6.104l8.44-26.146h6.52l8.456,26.146h-6.105L367.532,125.015z
			 M360.634,120.346h5.551l-2.73-9.358h-0.108L360.634,120.346z"/>
		<path fill="#4554A4" d="M383.065,120.075v10.021h-6.089V103.95h10.054c3.03,0,5.43,0.702,7.204,2.101
			c1.771,1.4,2.656,3.315,2.656,5.746c0,1.354-0.356,2.514-1.069,3.483c-0.712,0.971-1.762,1.761-3.15,2.371
			c1.604,0.456,2.757,1.214,3.458,2.272c0.698,1.06,1.049,2.379,1.049,3.958v1.653c0,0.683,0.103,1.462,0.308,2.335
			c0.202,0.873,0.553,1.495,1.059,1.866v0.36h-6.249c-0.48-0.372-0.795-1.031-0.943-1.976c-0.151-0.946-0.224-1.82-0.224-2.623
			v-1.579c0-1.245-0.333-2.199-0.986-2.857c-0.663-0.658-1.625-0.987-2.894-0.987H383.065z M383.065,115.407h4.002
			c1.224,0,2.153-0.278,2.802-0.836c0.646-0.556,0.971-1.354,0.971-2.396c0-1.065-0.334-1.925-0.996-2.577
			c-0.665-0.652-1.603-0.979-2.813-0.979h-3.965V115.407z"/>
		<path fill="#4554A4" d="M409.229,103.95l5.856,18.298h0.106l5.924-18.298h8.012v26.146h-6.09v-6.483l0.576-11.94l-0.106-0.02
			l-6.307,18.443h-4.094l-6.229-18.282l-0.111,0.019l0.577,11.78v6.483h-6.087V103.95H409.229z"/>
		<path fill="#4554A4" d="M449.561,118.908h-10.254v6.52h12.087v4.669h-18.175V103.95h18.21v4.668h-12.122v5.621h10.254V118.908z"/>
		<path fill="#4554A4" d="M475.96,130.097h-6.054l-9.573-16.663l-0.104,0.033v16.63h-6.087V103.95h6.087l9.569,16.666l0.108-0.037
			V103.95h6.054V130.097z"/>
		<path fill="#4554A4" d="M486.536,130.097h-6.053V103.95h6.053V130.097z"/>
		<path fill="#4554A4" d="M505.265,125.015h-8.243l-1.471,5.082h-6.107l8.443-26.146h6.518l8.457,26.146h-6.105L505.265,125.015z
			 M498.371,120.346h5.547l-2.729-9.358h-0.105L498.371,120.346z"/>
	</g>
	<line fill="none" stroke="#4554A4" stroke-width="2" stroke-miterlimit="10" x1="314.186" y1="62.605" x2="334.723" y2="62.605"/>
	
		<line fill="none" stroke="#4554A4" stroke-width="2" stroke-miterlimit="10" x1="314.186" y1="136.978" x2="334.723" y2="136.978"/>
	<circle fill="#4554A4" cx="595.155" cy="44.038" r="8.358"/>
	<circle fill="#4554A4" cx="595.155" cy="157.859" r="8.358"/>
	<line fill="none" stroke="#4554A4" stroke-width="2" stroke-miterlimit="10" x1="595.154" y1="44.038" x2="530.43" y2="74.427"/>
	<line fill="none" stroke="#4554A4" stroke-width="2" stroke-miterlimit="10" x1="595.154" y1="157.859" x2="530.43" y2="124.346"/>
	<line fill="none" stroke="#4554A4" stroke-width="2" stroke-miterlimit="10" x1="530.43" y1="54.675" x2="530.43" y2="144.176"/>
	<line fill="none" stroke="#4554A4" stroke-width="2" stroke-miterlimit="10" x1="334.723" y1="54.348" x2="334.723" y2="143.851"/>
	<g>
		<line fill="none" stroke="#4554A4" stroke-miterlimit="10" x1="334.723" y1="64.429" x2="348.391" y2="64.429"/>
		<line fill="none" stroke="#4554A4" stroke-miterlimit="10" x1="334.728" y1="66.822" x2="348.395" y2="66.822"/>
		<line fill="none" stroke="#4554A4" stroke-miterlimit="10" x1="334.725" y1="69.269" x2="348.393" y2="69.269"/>
		<line fill="none" stroke="#4554A4" stroke-miterlimit="10" x1="334.729" y1="71.662" x2="348.396" y2="71.662"/>
		<line fill="none" stroke="#4554A4" stroke-miterlimit="10" x1="334.725" y1="74.566" x2="348.393" y2="74.566"/>
		<line fill="none" stroke="#4554A4" stroke-miterlimit="10" x1="334.729" y1="76.958" x2="348.396" y2="76.958"/>
		<line fill="none" stroke="#4554A4" stroke-miterlimit="10" x1="334.728" y1="79.405" x2="348.396" y2="79.405"/>
		<line fill="none" stroke="#4554A4" stroke-miterlimit="10" x1="334.732" y1="81.799" x2="348.399" y2="81.799"/>
		<line fill="none" stroke="#4554A4" stroke-miterlimit="10" x1="334.725" y1="83.947" x2="348.393" y2="83.947"/>
		<line fill="none" stroke="#4554A4" stroke-miterlimit="10" x1="334.729" y1="86.34" x2="348.396" y2="86.34"/>
		<line fill="none" stroke="#4554A4" stroke-miterlimit="10" x1="334.728" y1="88.787" x2="348.396" y2="88.787"/>
		<line fill="none" stroke="#4554A4" stroke-miterlimit="10" x1="334.732" y1="91.18" x2="348.399" y2="91.18"/>
		<line fill="none" stroke="#4554A4" stroke-miterlimit="10" x1="334.728" y1="94.084" x2="348.396" y2="94.084"/>
		<line fill="none" stroke="#4554A4" stroke-miterlimit="10" x1="334.732" y1="96.477" x2="348.399" y2="96.477"/>
		<line fill="none" stroke="#4554A4" stroke-miterlimit="10" x1="334.729" y1="98.924" x2="348.397" y2="98.924"/>
		<line fill="none" stroke="#4554A4" stroke-miterlimit="10" x1="334.734" y1="101.317" x2="348.401" y2="101.317"/>
		<line fill="none" stroke="#4554A4" stroke-miterlimit="10" x1="334.725" y1="103.519" x2="348.393" y2="103.519"/>
		<line fill="none" stroke="#4554A4" stroke-miterlimit="10" x1="334.729" y1="105.913" x2="348.396" y2="105.913"/>
		<line fill="none" stroke="#4554A4" stroke-miterlimit="10" x1="334.728" y1="108.359" x2="348.396" y2="108.359"/>
		<line fill="none" stroke="#4554A4" stroke-miterlimit="10" x1="334.732" y1="110.752" x2="348.399" y2="110.752"/>
		<line fill="none" stroke="#4554A4" stroke-miterlimit="10" x1="334.728" y1="113.656" x2="348.396" y2="113.656"/>
		<line fill="none" stroke="#4554A4" stroke-miterlimit="10" x1="334.732" y1="116.049" x2="348.399" y2="116.049"/>
		<line fill="none" stroke="#4554A4" stroke-miterlimit="10" x1="334.729" y1="118.496" x2="348.397" y2="118.496"/>
		<line fill="none" stroke="#4554A4" stroke-miterlimit="10" x1="334.734" y1="120.889" x2="348.401" y2="120.889"/>
		<line fill="none" stroke="#4554A4" stroke-miterlimit="10" x1="334.728" y1="123.038" x2="348.396" y2="123.038"/>
		<line fill="none" stroke="#4554A4" stroke-miterlimit="10" x1="334.732" y1="125.431" x2="348.399" y2="125.431"/>
		<line fill="none" stroke="#4554A4" stroke-miterlimit="10" x1="334.729" y1="127.878" x2="348.397" y2="127.878"/>
		<line fill="none" stroke="#4554A4" stroke-miterlimit="10" x1="334.734" y1="130.271" x2="348.401" y2="130.271"/>
		<line fill="none" stroke="#4554A4" stroke-miterlimit="10" x1="334.729" y1="133.174" x2="348.397" y2="133.174"/>
		<line fill="none" stroke="#4554A4" stroke-miterlimit="10" x1="334.734" y1="135.568" x2="348.401" y2="135.568"/>
	</g>
	<g>
		<line fill="none" stroke="#4554A4" stroke-miterlimit="10" x1="516.742" y1="63.353" x2="530.41" y2="63.353"/>
		<line fill="none" stroke="#4554A4" stroke-miterlimit="10" x1="516.746" y1="65.746" x2="530.413" y2="65.746"/>
		<line fill="none" stroke="#4554A4" stroke-miterlimit="10" x1="516.745" y1="68.192" x2="530.413" y2="68.192"/>
		<line fill="none" stroke="#4554A4" stroke-miterlimit="10" x1="516.748" y1="70.586" x2="530.415" y2="70.586"/>
		<line fill="none" stroke="#4554A4" stroke-miterlimit="10" x1="516.745" y1="73.49" x2="530.413" y2="73.49"/>
		<line fill="none" stroke="#4554A4" stroke-miterlimit="10" x1="516.748" y1="75.882" x2="530.415" y2="75.882"/>
		<line fill="none" stroke="#4554A4" stroke-miterlimit="10" x1="516.747" y1="78.33" x2="530.415" y2="78.33"/>
		<line fill="none" stroke="#4554A4" stroke-miterlimit="10" x1="516.75" y1="80.723" x2="530.417" y2="80.723"/>
		<line fill="none" stroke="#4554A4" stroke-miterlimit="10" x1="516.745" y1="82.872" x2="530.413" y2="82.872"/>
		<line fill="none" stroke="#4554A4" stroke-miterlimit="10" x1="516.748" y1="85.264" x2="530.415" y2="85.264"/>
		<line fill="none" stroke="#4554A4" stroke-miterlimit="10" x1="516.747" y1="87.711" x2="530.415" y2="87.711"/>
		<line fill="none" stroke="#4554A4" stroke-miterlimit="10" x1="516.75" y1="90.104" x2="530.417" y2="90.104"/>
		<line fill="none" stroke="#4554A4" stroke-miterlimit="10" x1="516.747" y1="93.008" x2="530.415" y2="93.008"/>
		<line fill="none" stroke="#4554A4" stroke-miterlimit="10" x1="516.75" y1="95.401" x2="530.417" y2="95.401"/>
		<line fill="none" stroke="#4554A4" stroke-miterlimit="10" x1="516.749" y1="97.848" x2="530.417" y2="97.848"/>
		<line fill="none" stroke="#4554A4" stroke-miterlimit="10" x1="516.753" y1="100.241" x2="530.419" y2="100.241"/>
		<line fill="none" stroke="#4554A4" stroke-miterlimit="10" x1="516.745" y1="102.443" x2="530.413" y2="102.443"/>
		<line fill="none" stroke="#4554A4" stroke-miterlimit="10" x1="516.748" y1="104.836" x2="530.415" y2="104.836"/>
		<line fill="none" stroke="#4554A4" stroke-miterlimit="10" x1="516.747" y1="107.283" x2="530.415" y2="107.283"/>
		<line fill="none" stroke="#4554A4" stroke-miterlimit="10" x1="516.75" y1="109.676" x2="530.417" y2="109.676"/>
		<line fill="none" stroke="#4554A4" stroke-miterlimit="10" x1="516.747" y1="112.58" x2="530.415" y2="112.58"/>
		<line fill="none" stroke="#4554A4" stroke-miterlimit="10" x1="516.75" y1="114.973" x2="530.417" y2="114.973"/>
		<line fill="none" stroke="#4554A4" stroke-miterlimit="10" x1="516.749" y1="117.42" x2="530.417" y2="117.42"/>
		<line fill="none" stroke="#4554A4" stroke-miterlimit="10" x1="516.753" y1="119.813" x2="530.419" y2="119.813"/>
		<line fill="none" stroke="#4554A4" stroke-miterlimit="10" x1="516.747" y1="121.961" x2="530.415" y2="121.961"/>
		<line fill="none" stroke="#4554A4" stroke-miterlimit="10" x1="516.75" y1="124.355" x2="530.417" y2="124.355"/>
		<line fill="none" stroke="#4554A4" stroke-miterlimit="10" x1="516.749" y1="126.802" x2="530.417" y2="126.802"/>
		<line fill="none" stroke="#4554A4" stroke-miterlimit="10" x1="516.753" y1="129.195" x2="530.419" y2="129.195"/>
		<line fill="none" stroke="#4554A4" stroke-miterlimit="10" x1="516.749" y1="132.099" x2="530.417" y2="132.099"/>
		<line fill="none" stroke="#4554A4" stroke-miterlimit="10" x1="516.753" y1="134.492" x2="530.419" y2="134.492"/>
	</g>
</g>
<g>
	<rect x="334.794" y="135.329" fill="#4554A4" width="195.636" height="8.848"/>
	<g opacity="0.1">
		<defs>
			<rect id="SVGID_1_" x="334.723" y="134.616" opacity="0.1" width="195.707" height="9.436"/>
		</defs>
		<clipPath id="SVGID_2_">
			<use xlink:href="#SVGID_1_"  overflow="visible"/>
		</clipPath>
		<g clip-path="url(#SVGID_2_)">
			<text transform="matrix(1 0 0 1 321.1299 144.335)"><tspan x="0" y="0" fill="#FFFFFF" font-family="'Roboto-Medium'" font-size="12">2015  </tspan><tspan x="33.258" y="0" fill="#FFFFFF" font-family="'Roboto-Medium'" font-size="12" letter-spacing="11">	</tspan><tspan x="47.338" y="0" fill="#FFFFFF" font-family="'Roboto-Medium'" font-size="12">  2015</tspan><tspan x="80.596" y="0" fill="#FFFFFF" font-family="'Roboto-Medium'" font-size="12" letter-spacing="11">	</tspan><tspan x="94.677" y="0" fill="#FFFFFF" font-family="'Roboto-Medium'" font-size="12">  2015</tspan><tspan x="127.935" y="0" fill="#FFFFFF" font-family="'Roboto-Medium'" font-size="12" letter-spacing="11">	</tspan><tspan x="142.015" y="0" fill="#FFFFFF" font-family="'Roboto-Medium'" font-size="12">  2015</tspan><tspan x="175.272" y="0" fill="#FFFFFF" font-family="'Roboto-Medium'" font-size="12" letter-spacing="11">	</tspan><tspan x="189.354" y="0" fill="#FFFFFF" font-family="'Roboto-Medium'" font-size="12">  2015</tspan><tspan x="222.611" y="0" fill="#FFFFFF" font-family="'Roboto-Medium'" font-size="12" letter-spacing="11">	</tspan><tspan x="236.691" y="0" fill="#FFFFFF" font-family="'Roboto-Medium'" font-size="12">2015</tspan></text>
		</g>
	</g>
</g>
<g>
	<rect x="334.829" y="53.683" fill="#4554A4" width="195.636" height="8.848"/>
	<g opacity="0.1">
		<defs>
			<rect id="SVGID_3_" x="334.758" y="52.97" opacity="0.1" width="195.707" height="9.436"/>
		</defs>
		<clipPath id="SVGID_4_">
			<use xlink:href="#SVGID_3_"  overflow="visible"/>
		</clipPath>
		<g clip-path="url(#SVGID_4_)">
			<text transform="matrix(1 0 0 1 321.165 62.689)"><tspan x="0" y="0" fill="#FFFFFF" font-family="'Roboto-Medium'" font-size="12">2015  </tspan><tspan x="33.258" y="0" fill="#FFFFFF" font-family="'Roboto-Medium'" font-size="12" letter-spacing="11">	</tspan><tspan x="47.338" y="0" fill="#FFFFFF" font-family="'Roboto-Medium'" font-size="12">  2015</tspan><tspan x="80.596" y="0" fill="#FFFFFF" font-family="'Roboto-Medium'" font-size="12" letter-spacing="11">	</tspan><tspan x="94.677" y="0" fill="#FFFFFF" font-family="'Roboto-Medium'" font-size="12">  2015</tspan><tspan x="127.935" y="0" fill="#FFFFFF" font-family="'Roboto-Medium'" font-size="12" letter-spacing="11">	</tspan><tspan x="142.015" y="0" fill="#FFFFFF" font-family="'Roboto-Medium'" font-size="12">  2015</tspan><tspan x="175.272" y="0" fill="#FFFFFF" font-family="'Roboto-Medium'" font-size="12" letter-spacing="11">	</tspan><tspan x="189.354" y="0" fill="#FFFFFF" font-family="'Roboto-Medium'" font-size="12">  2015</tspan><tspan x="222.611" y="0" fill="#FFFFFF" font-family="'Roboto-Medium'" font-size="12" letter-spacing="11">	</tspan><tspan x="236.691" y="0" fill="#FFFFFF" font-family="'Roboto-Medium'" font-size="12">2015</tspan></text>
		</g>
	</g>
</g>
</svg>
