<?xml version="1.0" encoding="utf-8"?>
<!-- Generator: Adobe Illustrator 16.0.0, SVG Export Plug-In . SVG Version: 6.00 Build 0)  -->
<!DOCTYPE svg PUBLIC "-//W3C//DTD SVG 1.1//EN" "http://www.w3.org/Graphics/SVG/1.1/DTD/svg11.dtd">
<svg version="1.1" id="Layer_1" xmlns="http://www.w3.org/2000/svg" xmlns:xlink="http://www.w3.org/1999/xlink" x="0px" y="0px"
	 width="900px" height="300px" viewBox="0 0 900 300" enable-background="new 0 0 900 300" xml:space="preserve">
<circle fill="#606161" cx="75.345" cy="73.533" r="11.231"/>
<path fill="#606161" d="M86.577,226.494c0,6.205-5.028,11.235-11.231,11.235c-6.202,0-11.231-5.03-11.231-11.235
	c0-6.202,5.029-11.229,11.231-11.229C81.549,215.265,86.577,220.292,86.577,226.494z"/>
<line fill="none" stroke="#606161" stroke-width="2" stroke-miterlimit="10" x1="75.345" y1="73.533" x2="152.494" y2="98.481"/>
<line fill="none" stroke="#606161" stroke-width="2" stroke-miterlimit="10" x1="75.345" y1="226.494" x2="152.494" y2="206.291"/>
<line fill="none" stroke="#606161" stroke-width="2" stroke-miterlimit="10" x1="215.871" y1="152.571" x2="243.471" y2="152.571"/>
<line fill="none" stroke="#606161" stroke-width="2" stroke-miterlimit="10" x1="268.399" y1="152.571" x2="296" y2="152.571"/>
<line fill="none" stroke="#606161" stroke-width="2" stroke-miterlimit="10" x1="317.465" y1="151.001" x2="345.065" y2="151.001"/>
<line fill="none" stroke="#606161" stroke-width="2" stroke-miterlimit="10" x1="370.407" y1="151.001" x2="398.008" y2="151.001"/>
<circle fill="#606161" cx="402.869" cy="151.001" r="11.231"/>
<line fill="none" stroke="#606161" stroke-width="2" stroke-miterlimit="10" x1="402.868" y1="149.758" x2="470.438" y2="198.433"/>
<line fill="none" stroke="#606161" stroke-width="2" stroke-miterlimit="10" x1="404.152" y1="151.001" x2="470.438" y2="98.481"/>
<path fill="#606161" d="M481.67,98.481c0,6.205-5.026,11.232-11.232,11.232c-6.201,0-11.229-5.027-11.229-11.232
	c0-6.201,5.027-11.229,11.229-11.229C476.644,87.252,481.67,92.28,481.67,98.481z"/>
<path fill="#606161" d="M481.67,198.433c0,6.202-5.026,11.23-11.232,11.23c-6.201,0-11.229-5.028-11.229-11.23
	c0-6.203,5.027-11.23,11.229-11.23C476.644,187.202,481.67,192.229,481.67,198.433z"/>
<g>
	<path fill="#414042" d="M525.638,140.558V104.6h12.351c4.396,0,8.018,1.402,10.864,4.211c2.853,2.806,4.273,6.407,4.273,10.805
		v5.953c0,4.412-1.421,8.012-4.273,10.805c-2.847,2.792-6.468,4.185-10.864,4.185H525.638z M532.852,110.153v24.849h4.768
		c2.585,0,4.609-0.871,6.074-2.613c1.466-1.745,2.199-4.025,2.199-6.838v-5.998c0-2.776-0.733-5.041-2.199-6.784
		c-1.465-1.743-3.489-2.617-6.074-2.617H532.852z"/>
	<path fill="#414042" d="M580.89,124.754h-14.892v10.248h17.41v5.557h-24.627V104.6h24.577v5.553h-17.36v9.042h14.892V124.754z"/>
	<path fill="#414042" d="M600.03,131.002l0.448,1.95h0.145l0.421-1.901l7.834-26.452h7.603l-12.226,35.958h-7.411L584.641,104.6
		h7.608L600.03,131.002z"/>
	<path fill="#414042" d="M642.292,125.616h-15.068v14.942h-7.213V104.6h24.801v5.553h-17.588v9.907h15.068V125.616z"/>
	<path fill="#414042" d="M671.311,124.754h-14.896v10.248h17.413v5.557h-24.623V104.6h24.581v5.553h-17.371v9.042h14.896V124.754z"
		/>
	<path fill="#414042" d="M697.663,131.173c0-1.384-0.491-2.494-1.466-3.335c-0.98-0.838-2.697-1.627-5.154-2.37
		c-4.277-1.235-7.512-2.701-9.707-4.396c-2.189-1.696-3.28-4.017-3.28-6.962c0-2.948,1.253-5.357,3.763-7.226
		c2.516-1.87,5.72-2.804,9.624-2.804c3.95,0,7.173,1.048,9.654,3.149c2.491,2.1,3.687,4.689,3.607,7.768l-0.048,0.147h-6.993
		c0-1.664-0.554-3.007-1.664-4.038c-1.109-1.029-2.673-1.544-4.683-1.544c-1.926,0-3.413,0.428-4.468,1.286
		c-1.055,0.854-1.58,1.95-1.58,3.283c0,1.22,0.562,2.223,1.688,3.001c1.128,0.783,3.076,1.611,5.847,2.483
		c3.965,1.103,6.967,2.562,9.014,4.373c2.04,1.81,3.061,4.188,3.061,7.137c0,3.079-1.217,5.509-3.644,7.286
		c-2.426,1.779-5.631,2.666-9.621,2.666c-3.917,0-7.333-1.007-10.247-3.026c-2.915-2.016-4.335-4.843-4.251-8.482l0.052-0.15h7.017
		c0,2.142,0.65,3.71,1.961,4.706c1.309,0.999,3.132,1.494,5.469,1.494c1.965,0,3.456-0.401,4.501-1.206
		C697.146,133.601,697.663,132.524,697.663,131.173z"/>
	<path fill="#414042" d="M735.185,110.153H725.01v30.405h-7.216v-30.405h-10.128V104.6h27.519V110.153z"/>
	<path fill="#414042" d="M543.457,179.001H532.58l-1.944,6.705h-8.054l11.136-34.493h8.601l11.153,34.493h-8.054L543.457,179.001z
		 M534.356,172.841h7.323l-3.604-12.343h-0.145L534.356,172.841z"/>
	<path fill="#414042" d="M563.949,172.486v13.22h-8.033v-34.493h13.262c4,0,7.165,0.923,9.504,2.771
		c2.337,1.848,3.505,4.373,3.505,7.581c0,1.786-0.468,3.318-1.411,4.597c-0.938,1.28-2.324,2.322-4.153,3.126
		c2.114,0.601,3.634,1.601,4.563,2.998c0.921,1.399,1.382,3.139,1.382,5.222v2.18c0,0.9,0.134,1.93,0.403,3.081
		c0.268,1.153,0.734,1.975,1.397,2.464v0.475h-8.245c-0.632-0.49-1.046-1.359-1.243-2.607c-0.199-1.247-0.294-2.401-0.294-3.458
		v-2.084c0-1.644-0.438-2.899-1.302-3.767c-0.875-0.869-2.142-1.303-3.818-1.303H563.949z M563.949,166.324h5.281
		c1.611,0,2.839-0.367,3.692-1.1c0.854-0.733,1.282-1.788,1.282-3.162c0-1.405-0.442-2.54-1.313-3.4
		c-0.879-0.86-2.118-1.29-3.714-1.29h-5.229V166.324z"/>
	<path fill="#414042" d="M598.464,151.213l7.728,24.141h0.142l7.813-24.141h10.567v34.493h-8.03v-8.553l0.757-15.754l-0.141-0.023
		l-8.315,24.33h-5.402l-8.222-24.117l-0.146,0.023l0.761,15.541v8.553h-8.03v-34.493H598.464z"/>
	<path fill="#414042" d="M651.672,170.946h-13.528v8.6h15.949v6.16h-23.979v-34.493h24.021v6.159h-15.992v7.416h13.528V170.946z"/>
	<path fill="#414042" d="M686.501,185.706h-7.985l-12.631-21.986l-0.142,0.047v21.939h-8.027v-34.493h8.027l12.629,21.984
		l0.144-0.046v-21.938h7.985V185.706z"/>
	<path fill="#414042" d="M700.452,185.706h-7.985v-34.493h7.985V185.706z"/>
	<path fill="#414042" d="M725.161,179.001h-10.874l-1.942,6.705h-8.056l11.138-34.493h8.6l11.158,34.493h-8.058L725.161,179.001z
		 M716.065,172.841h7.318l-3.602-12.343h-0.141L716.065,172.841z"/>
</g>
<line fill="none" stroke="#606161" stroke-width="2" stroke-miterlimit="10" x1="470.438" y1="98.481" x2="498.04" y2="98.481"/>
<line fill="none" stroke="#606161" stroke-width="2" stroke-miterlimit="10" x1="470.438" y1="198.433" x2="498.04" y2="198.433"/>
<circle fill="#606161" cx="823.431" cy="73.533" r="11.231"/>
<path fill="#606161" d="M812.2,226.494c0,6.205,5.03,11.233,11.23,11.233c6.205,0,11.231-5.028,11.231-11.233
	c0-6.2-5.026-11.229-11.231-11.229C817.23,215.265,812.2,220.294,812.2,226.494z"/>
<line fill="none" stroke="#606161" stroke-width="2" stroke-miterlimit="10" x1="823.431" y1="73.533" x2="761.049" y2="114.372"/>
<line fill="none" stroke="#606161" stroke-width="2" stroke-miterlimit="10" x1="823.431" y1="226.494" x2="761.049" y2="181.456"/>
<line fill="none" stroke="#606161" stroke-width="2" stroke-miterlimit="10" x1="761.049" y1="87.826" x2="761.049" y2="208.108"/>
<line fill="none" stroke="#606161" stroke-width="2" stroke-miterlimit="10" x1="498.04" y1="87.387" x2="498.04" y2="207.668"/>
<g>
	<line fill="none" stroke="#606161" stroke-miterlimit="10" x1="498.04" y1="100.936" x2="516.406" y2="100.936"/>
	<line fill="none" stroke="#606161" stroke-miterlimit="10" x1="498.046" y1="104.152" x2="516.412" y2="104.152"/>
	<line fill="none" stroke="#606161" stroke-miterlimit="10" x1="498.044" y1="107.439" x2="516.409" y2="107.439"/>
	<line fill="none" stroke="#606161" stroke-miterlimit="10" x1="498.05" y1="110.656" x2="516.415" y2="110.656"/>
	<line fill="none" stroke="#606161" stroke-miterlimit="10" x1="498.044" y1="114.557" x2="516.409" y2="114.557"/>
	<line fill="none" stroke="#606161" stroke-miterlimit="10" x1="498.05" y1="117.773" x2="516.415" y2="117.773"/>
	<line fill="none" stroke="#606161" stroke-miterlimit="10" x1="498.046" y1="121.061" x2="516.412" y2="121.061"/>
	<line fill="none" stroke="#606161" stroke-miterlimit="10" x1="498.052" y1="124.277" x2="516.418" y2="124.277"/>
	<line fill="none" stroke="#606161" stroke-miterlimit="10" x1="498.044" y1="127.165" x2="516.409" y2="127.165"/>
	<line fill="none" stroke="#606161" stroke-miterlimit="10" x1="498.05" y1="130.38" x2="516.415" y2="130.38"/>
	<line fill="none" stroke="#606161" stroke-miterlimit="10" x1="498.046" y1="133.669" x2="516.412" y2="133.669"/>
	<line fill="none" stroke="#606161" stroke-miterlimit="10" x1="498.052" y1="136.887" x2="516.418" y2="136.887"/>
	<line fill="none" stroke="#606161" stroke-miterlimit="10" x1="498.046" y1="140.788" x2="516.412" y2="140.788"/>
	<line fill="none" stroke="#606161" stroke-miterlimit="10" x1="498.052" y1="144.004" x2="516.418" y2="144.004"/>
	<line fill="none" stroke="#606161" stroke-miterlimit="10" x1="498.05" y1="147.291" x2="516.415" y2="147.291"/>
	<line fill="none" stroke="#606161" stroke-miterlimit="10" x1="498.055" y1="150.509" x2="516.421" y2="150.509"/>
	<line fill="none" stroke="#606161" stroke-miterlimit="10" x1="498.044" y1="153.466" x2="516.409" y2="153.466"/>
	<line fill="none" stroke="#606161" stroke-miterlimit="10" x1="498.05" y1="156.686" x2="516.415" y2="156.686"/>
	<line fill="none" stroke="#606161" stroke-miterlimit="10" x1="498.046" y1="159.974" x2="516.412" y2="159.974"/>
	<line fill="none" stroke="#606161" stroke-miterlimit="10" x1="498.052" y1="163.188" x2="516.418" y2="163.188"/>
	<line fill="none" stroke="#606161" stroke-miterlimit="10" x1="498.046" y1="167.091" x2="516.412" y2="167.091"/>
	<line fill="none" stroke="#606161" stroke-miterlimit="10" x1="498.052" y1="170.307" x2="516.418" y2="170.307"/>
	<line fill="none" stroke="#606161" stroke-miterlimit="10" x1="498.05" y1="173.595" x2="516.415" y2="173.595"/>
	<line fill="none" stroke="#606161" stroke-miterlimit="10" x1="498.055" y1="176.811" x2="516.421" y2="176.811"/>
	<line fill="none" stroke="#606161" stroke-miterlimit="10" x1="498.046" y1="179.699" x2="516.412" y2="179.699"/>
	<line fill="none" stroke="#606161" stroke-miterlimit="10" x1="498.052" y1="182.914" x2="516.418" y2="182.914"/>
	<line fill="none" stroke="#606161" stroke-miterlimit="10" x1="498.05" y1="186.202" x2="516.415" y2="186.202"/>
	<line fill="none" stroke="#606161" stroke-miterlimit="10" x1="498.055" y1="189.419" x2="516.421" y2="189.419"/>
	<line fill="none" stroke="#606161" stroke-miterlimit="10" x1="498.05" y1="193.321" x2="516.415" y2="193.321"/>
	<line fill="none" stroke="#606161" stroke-miterlimit="10" x1="498.055" y1="196.538" x2="516.421" y2="196.538"/>
</g>
<g>
	<line fill="none" stroke="#606161" stroke-miterlimit="10" x1="742.651" y1="99.489" x2="761.021" y2="99.489"/>
	<line fill="none" stroke="#606161" stroke-miterlimit="10" x1="742.657" y1="102.705" x2="761.026" y2="102.705"/>
	<line fill="none" stroke="#606161" stroke-miterlimit="10" x1="742.654" y1="105.994" x2="761.026" y2="105.994"/>
	<line fill="none" stroke="#606161" stroke-miterlimit="10" x1="742.662" y1="109.21" x2="761.029" y2="109.21"/>
	<line fill="none" stroke="#606161" stroke-miterlimit="10" x1="742.654" y1="113.111" x2="761.026" y2="113.111"/>
	<line fill="none" stroke="#606161" stroke-miterlimit="10" x1="742.662" y1="116.327" x2="761.029" y2="116.327"/>
	<line fill="none" stroke="#606161" stroke-miterlimit="10" x1="742.657" y1="119.615" x2="761.029" y2="119.615"/>
	<line fill="none" stroke="#606161" stroke-miterlimit="10" x1="742.665" y1="122.832" x2="761.031" y2="122.832"/>
	<line fill="none" stroke="#606161" stroke-miterlimit="10" x1="742.654" y1="125.719" x2="761.026" y2="125.719"/>
	<line fill="none" stroke="#606161" stroke-miterlimit="10" x1="742.662" y1="128.934" x2="761.029" y2="128.934"/>
	<line fill="none" stroke="#606161" stroke-miterlimit="10" x1="742.657" y1="132.223" x2="761.029" y2="132.223"/>
	<line fill="none" stroke="#606161" stroke-miterlimit="10" x1="742.665" y1="135.439" x2="761.031" y2="135.439"/>
	<line fill="none" stroke="#606161" stroke-miterlimit="10" x1="742.657" y1="139.342" x2="761.029" y2="139.342"/>
	<line fill="none" stroke="#606161" stroke-miterlimit="10" x1="742.665" y1="142.559" x2="761.031" y2="142.559"/>
	<line fill="none" stroke="#606161" stroke-miterlimit="10" x1="742.662" y1="145.845" x2="761.031" y2="145.845"/>
	<line fill="none" stroke="#606161" stroke-miterlimit="10" x1="742.666" y1="149.063" x2="761.033" y2="149.063"/>
	<line fill="none" stroke="#606161" stroke-miterlimit="10" x1="742.654" y1="152.021" x2="761.026" y2="152.021"/>
	<line fill="none" stroke="#606161" stroke-miterlimit="10" x1="742.662" y1="155.238" x2="761.029" y2="155.238"/>
	<line fill="none" stroke="#606161" stroke-miterlimit="10" x1="742.657" y1="158.526" x2="761.029" y2="158.526"/>
	<line fill="none" stroke="#606161" stroke-miterlimit="10" x1="742.665" y1="161.743" x2="761.031" y2="161.743"/>
	<line fill="none" stroke="#606161" stroke-miterlimit="10" x1="742.657" y1="165.645" x2="761.029" y2="165.645"/>
	<line fill="none" stroke="#606161" stroke-miterlimit="10" x1="742.665" y1="168.861" x2="761.031" y2="168.861"/>
	<line fill="none" stroke="#606161" stroke-miterlimit="10" x1="742.662" y1="172.149" x2="761.031" y2="172.149"/>
	<line fill="none" stroke="#606161" stroke-miterlimit="10" x1="742.666" y1="175.365" x2="761.033" y2="175.365"/>
	<line fill="none" stroke="#606161" stroke-miterlimit="10" x1="742.657" y1="178.253" x2="761.029" y2="178.253"/>
	<line fill="none" stroke="#606161" stroke-miterlimit="10" x1="742.665" y1="181.468" x2="761.031" y2="181.468"/>
	<line fill="none" stroke="#606161" stroke-miterlimit="10" x1="742.662" y1="184.756" x2="761.031" y2="184.756"/>
	<line fill="none" stroke="#606161" stroke-miterlimit="10" x1="742.666" y1="187.973" x2="761.033" y2="187.973"/>
	<line fill="none" stroke="#606161" stroke-miterlimit="10" x1="742.662" y1="191.874" x2="761.031" y2="191.874"/>
	<line fill="none" stroke="#606161" stroke-miterlimit="10" x1="742.666" y1="195.092" x2="761.033" y2="195.092"/>
</g>
<g>
	<path fill="#BCBEC0" d="M17.96,229.209l0.016,0.048c0.021,1.197-0.341,2.112-1.086,2.746c-0.746,0.633-1.728,0.949-2.946,0.949
		c-1.277,0-2.301-0.472-3.07-1.414c-0.77-0.943-1.154-2.182-1.154-3.716v-1.748c0-1.528,0.385-2.766,1.154-3.711
		c0.77-0.946,1.793-1.419,3.07-1.419c1.218,0,2.2,0.318,2.946,0.954s1.107,1.544,1.086,2.726l-0.016,0.048h-0.369
		c0-1.053-0.328-1.865-0.982-2.437c-0.655-0.572-1.543-0.858-2.666-0.858c-1.138,0-2.055,0.431-2.75,1.291
		c-0.695,0.86-1.042,1.99-1.042,3.391v1.764c0,1.416,0.347,2.553,1.042,3.411c0.694,0.857,1.611,1.286,2.75,1.286
		c1.122,0,2.011-0.275,2.666-0.825c0.654-0.551,0.982-1.379,0.982-2.485H17.96z"/>
	<path fill="#BCBEC0" d="M29.071,227.822c0,1.576-0.391,2.825-1.17,3.747c-0.78,0.922-1.854,1.383-3.223,1.383
		c-1.374,0-2.452-0.461-3.234-1.383c-0.783-0.922-1.175-2.171-1.175-3.747v-1.748c0-1.57,0.389-2.818,1.167-3.743
		c0.778-0.925,1.853-1.387,3.227-1.387c1.368,0,2.445,0.462,3.23,1.387s1.179,2.173,1.179,3.743V227.822z M28.638,226.059
		c0-1.433-0.345-2.57-1.034-3.415c-0.689-0.844-1.67-1.267-2.942-1.267c-1.267,0-2.242,0.423-2.926,1.267
		c-0.684,0.845-1.026,1.982-1.026,3.415v1.764c0,1.442,0.344,2.587,1.03,3.431c0.687,0.845,1.666,1.267,2.938,1.267
		s2.25-0.421,2.934-1.263c0.684-0.842,1.026-1.986,1.026-3.435V226.059z"/>
	<path fill="#BCBEC0" d="M32.358,221.112l4.777,10.982h0.048l4.793-10.982h0.633v11.672h-0.433v-10.91l-0.048-0.016l-4.793,10.926
		h-0.345l-4.77-10.87l-0.048,0.017v10.854H31.74v-11.672H32.358z"/>
	<path fill="#BCBEC0" d="M52.101,226.916H46.25v5.436h6.669v0.433h-7.103v-11.672h7.103v0.434H46.25v4.938h5.852V226.916z"/>
</g>
<g>
	<path fill="#BCBEC0" d="M17.96,77.351l0.016,0.048c0.021,1.197-0.341,2.112-1.086,2.746s-1.728,0.95-2.946,0.95
		c-1.277,0-2.301-0.472-3.07-1.415c-0.77-0.943-1.154-2.182-1.154-3.715v-1.748c0-1.528,0.385-2.766,1.154-3.711
		c0.77-0.946,1.793-1.419,3.07-1.419c1.218,0,2.2,0.318,2.946,0.954c0.746,0.636,1.107,1.545,1.086,2.726l-0.016,0.048h-0.369
		c0-1.053-0.328-1.865-0.982-2.437c-0.655-0.572-1.543-0.858-2.666-0.858c-1.138,0-2.055,0.431-2.75,1.291
		C10.5,71.67,10.153,72.8,10.153,74.2v1.764c0,1.416,0.347,2.553,1.042,3.411c0.694,0.858,1.611,1.287,2.75,1.287
		c1.122,0,2.011-0.275,2.666-0.826c0.654-0.55,0.982-1.378,0.982-2.485H17.96z"/>
	<path fill="#BCBEC0" d="M29.071,75.964c0,1.577-0.391,2.826-1.17,3.748c-0.78,0.922-1.854,1.383-3.223,1.383
		c-1.374,0-2.452-0.461-3.234-1.383c-0.783-0.922-1.175-2.171-1.175-3.748v-1.748c0-1.571,0.389-2.819,1.167-3.744
		c0.778-0.924,1.853-1.387,3.227-1.387c1.368,0,2.445,0.462,3.23,1.387c0.786,0.925,1.179,2.172,1.179,3.744V75.964z M28.638,74.2
		c0-1.432-0.345-2.57-1.034-3.415c-0.689-0.844-1.67-1.267-2.942-1.267c-1.267,0-2.242,0.422-2.926,1.267
		c-0.684,0.845-1.026,1.983-1.026,3.415v1.764c0,1.443,0.344,2.586,1.03,3.431c0.687,0.845,1.666,1.267,2.938,1.267
		s2.25-0.421,2.934-1.262c0.684-0.842,1.026-1.987,1.026-3.435V74.2z"/>
	<path fill="#BCBEC0" d="M32.358,69.254l4.777,10.982h0.048l4.793-10.982h0.633v11.671h-0.433v-10.91L42.129,70l-4.793,10.926
		h-0.345l-4.77-10.87l-0.048,0.016v10.854H31.74V69.254H32.358z"/>
	<path fill="#BCBEC0" d="M52.101,75.058H46.25v5.435h6.669v0.433h-7.103V69.254h7.103v0.433H46.25v4.938h5.852V75.058z"/>
</g>
<g>
	<path fill="#BCBEC0" d="M397.409,223.288l10.982-4.777v-0.048l-10.982-4.794v-0.634h11.671v0.434h-10.91l-0.016,0.048l10.926,4.794
		v0.345l-10.87,4.77l0.016,0.048h10.854v0.433h-11.671V223.288z"/>
	<path fill="#BCBEC0" d="M403.212,203.545v5.852h5.435v-6.67h0.433v7.103h-11.671v-7.103h0.433v6.67h4.938v-5.852H403.212z"/>
	<path fill="#BCBEC0" d="M403.212,194.198v5.852h5.435v-6.669h0.433v7.102h-11.671v-7.102h0.433v6.669h4.938v-5.852H403.212z"/>
	<path fill="#BCBEC0" d="M397.841,183.207v4.249h11.239v0.433h-11.239v4.249h-0.433v-8.93H397.841z"/>
</g>
<g>
	<path fill="#BCBEC0" d="M407.439,122.605h-11.671v-3.231c0-1.341,0.481-2.479,1.443-3.415s2.188-1.403,3.679-1.403h1.427
		c1.497,0,2.725,0.468,3.684,1.403c0.959,0.935,1.439,2.073,1.439,3.415V122.605z M396.2,122.172h10.806v-2.798
		c0-1.213-0.443-2.247-1.331-3.102c-0.887-0.855-2.006-1.283-3.359-1.283h-1.451c-1.336,0-2.448,0.428-3.335,1.283
		c-0.887,0.855-1.331,1.889-1.331,3.102V122.172z"/>
	<path fill="#BCBEC0" d="M407.439,111.11v0.433h-11.671v-0.433H407.439z"/>
	<path fill="#BCBEC0" d="M404.641,100.577c-0.732,0-1.317,0.269-1.755,0.806c-0.438,0.537-0.839,1.468-1.203,2.793
		c-0.358,1.331-0.765,2.305-1.222,2.922s-1.124,0.926-2,0.926c-0.871,0-1.566-0.364-2.084-1.09
		c-0.518-0.727-0.777-1.654-0.777-2.782c0-1.138,0.318-2.068,0.954-2.79c0.636-0.722,1.454-1.071,2.453-1.05l0.048,0.016v0.369
		c-0.871,0-1.593,0.321-2.165,0.962c-0.572,0.642-0.858,1.473-0.858,2.493c0,1.058,0.237,1.896,0.709,2.513
		c0.473,0.617,1.041,0.926,1.704,0.926s1.213-0.255,1.651-0.766s0.828-1.434,1.17-2.77c0.342-1.293,0.76-2.27,1.254-2.93
		c0.495-0.66,1.196-0.99,2.104-0.99c0.924,0,1.652,0.377,2.184,1.13s0.798,1.697,0.798,2.83c0,1.17-0.274,2.178-0.822,3.022
		c-0.548,0.845-1.41,1.253-2.585,1.227l-0.048-0.016v-0.36c1.058,0,1.827-0.39,2.305-1.17c0.479-0.78,0.717-1.681,0.717-2.702
		c0-1.026-0.235-1.869-0.705-2.529C405.999,100.907,405.39,100.577,404.641,100.577z"/>
	<path fill="#BCBEC0" d="M403.864,89.987l0.048-0.016c1.197-0.021,2.112,0.341,2.746,1.086s0.95,1.728,0.95,2.946
		c0,1.277-0.472,2.301-1.415,3.07c-0.943,0.77-2.182,1.154-3.715,1.154h-1.748c-1.528,0-2.766-0.385-3.711-1.154
		c-0.946-0.77-1.419-1.793-1.419-3.07c0-1.218,0.318-2.2,0.954-2.946c0.636-0.746,1.545-1.107,2.726-1.086l0.048,0.016v0.369
		c-1.053,0-1.865,0.328-2.437,0.982c-0.572,0.655-0.858,1.543-0.858,2.666c0,1.138,0.431,2.055,1.291,2.75
		c0.86,0.695,1.991,1.042,3.391,1.042h1.764c1.416,0,2.553-0.347,3.411-1.042c0.858-0.694,1.287-1.611,1.287-2.75
		c0-1.122-0.275-2.011-0.826-2.666c-0.55-0.654-1.378-0.982-2.485-0.982V89.987z"/>
	<path fill="#BCBEC0" d="M395.768,79.286h7.912c1.272,0,2.245,0.369,2.918,1.106c0.673,0.738,1.01,1.697,1.01,2.878
		c0,1.192-0.338,2.155-1.014,2.89c-0.676,0.735-1.647,1.103-2.914,1.103h-7.912v-0.433h7.912c1.096,0,1.952-0.331,2.569-0.994
		s0.926-1.518,0.926-2.565c0-1.042-0.309-1.895-0.926-2.557s-1.474-0.994-2.569-0.994h-7.912V79.286z"/>
	<path fill="#BCBEC0" d="M404.641,69.193c-0.732,0-1.317,0.269-1.755,0.806c-0.438,0.537-0.839,1.468-1.203,2.793
		c-0.358,1.331-0.765,2.305-1.222,2.922s-1.124,0.926-2,0.926c-0.871,0-1.566-0.364-2.084-1.09
		c-0.518-0.727-0.777-1.654-0.777-2.782c0-1.138,0.318-2.068,0.954-2.79c0.636-0.722,1.454-1.071,2.453-1.05l0.048,0.016v0.369
		c-0.871,0-1.593,0.321-2.165,0.962c-0.572,0.642-0.858,1.473-0.858,2.493c0,1.058,0.237,1.896,0.709,2.513
		c0.473,0.617,1.041,0.926,1.704,0.926s1.213-0.255,1.651-0.766s0.828-1.434,1.17-2.77c0.342-1.293,0.76-2.27,1.254-2.93
		c0.495-0.66,1.196-0.99,2.104-0.99c0.924,0,1.652,0.377,2.184,1.13s0.798,1.697,0.798,2.83c0,1.17-0.274,2.178-0.822,3.022
		c-0.548,0.845-1.41,1.253-2.585,1.227l-0.048-0.016v-0.36c1.058,0,1.827-0.39,2.305-1.17c0.479-0.78,0.717-1.681,0.717-2.702
		c0-1.026-0.235-1.869-0.705-2.529C405.999,69.523,405.39,69.193,404.641,69.193z"/>
	<path fill="#BCBEC0" d="M404.641,59.39c-0.732,0-1.317,0.269-1.755,0.806c-0.438,0.537-0.839,1.468-1.203,2.793
		c-0.358,1.331-0.765,2.305-1.222,2.922s-1.124,0.926-2,0.926c-0.871,0-1.566-0.364-2.084-1.09
		c-0.518-0.727-0.777-1.654-0.777-2.782c0-1.138,0.318-2.068,0.954-2.79c0.636-0.722,1.454-1.071,2.453-1.05l0.048,0.016v0.369
		c-0.871,0-1.593,0.321-2.165,0.962c-0.572,0.642-0.858,1.473-0.858,2.493c0,1.058,0.237,1.896,0.709,2.513
		c0.473,0.617,1.041,0.926,1.704,0.926s1.213-0.255,1.651-0.766s0.828-1.434,1.17-2.77c0.342-1.293,0.76-2.27,1.254-2.93
		c0.495-0.66,1.196-0.99,2.104-0.99c0.924,0,1.652,0.377,2.184,1.13s0.798,1.697,0.798,2.83c0,1.17-0.274,2.178-0.822,3.022
		c-0.548,0.845-1.41,1.253-2.585,1.227l-0.048-0.016v-0.36c1.058,0,1.827-0.39,2.305-1.17c0.479-0.78,0.717-1.681,0.717-2.702
		c0-1.026-0.235-1.869-0.705-2.529C405.999,59.72,405.39,59.39,404.641,59.39z"/>
</g>
<g>
	<path fill="#BCBEC0" d="M446.229,232.35h5.988v0.433h-6.429V221.11h0.441V232.35z"/>
	<path fill="#BCBEC0" d="M455.015,232.782h-0.433V221.11h0.433V232.782z"/>
	<path fill="#BCBEC0" d="M465.548,229.984c0-0.731-0.269-1.317-0.806-1.755c-0.537-0.438-1.469-0.84-2.794-1.203
		c-1.33-0.357-2.305-0.766-2.922-1.223c-0.617-0.456-0.926-1.123-0.926-2c0-0.871,0.363-1.565,1.091-2.084
		c0.727-0.519,1.653-0.777,2.781-0.777c1.139,0,2.068,0.318,2.79,0.954c0.721,0.636,1.071,1.453,1.05,2.453l-0.017,0.048h-0.368
		c0-0.871-0.32-1.593-0.962-2.164c-0.642-0.572-1.473-0.858-2.493-0.858c-1.059,0-1.896,0.236-2.513,0.71
		c-0.617,0.473-0.926,1.04-0.926,1.703s0.255,1.213,0.765,1.651c0.511,0.438,1.434,0.828,2.77,1.17
		c1.294,0.343,2.271,0.761,2.931,1.255s0.989,1.196,0.989,2.104c0,0.925-0.376,1.652-1.13,2.185
		c-0.754,0.531-1.696,0.797-2.83,0.797c-1.17,0-2.178-0.273-3.021-0.821c-0.845-0.548-1.254-1.409-1.227-2.585l0.016-0.049h0.361
		c0,1.059,0.39,1.827,1.17,2.305c0.78,0.479,1.681,0.718,2.701,0.718c1.026,0,1.869-0.235,2.529-0.705
		C465.218,231.342,465.548,230.732,465.548,229.984z"/>
	<path fill="#BCBEC0" d="M476.113,221.544h-4.249v11.238h-0.433v-11.238h-4.249v-0.434h8.931V221.544z"/>
	<path fill="#BCBEC0" d="M484.441,226.914h-5.852v5.436h6.67v0.433h-7.103V221.11h7.103v0.434h-6.67v4.938h5.852V226.914z"/>
	<path fill="#BCBEC0" d="M495.913,232.782h-0.434l-7.487-10.87l-0.048,0.017v10.854h-0.44V221.11h0.44l7.487,10.847l0.048-0.017
		v-10.83h0.434V232.782z"/>
</g>
<g>
	<path fill="#BCBEC0" d="M446.229,76.382h5.988v0.433h-6.429V65.144h0.441V76.382z"/>
	<path fill="#BCBEC0" d="M455.015,76.815h-0.433V65.144h0.433V76.815z"/>
	<path fill="#BCBEC0" d="M465.548,74.017c0-0.732-0.269-1.317-0.806-1.755c-0.537-0.438-1.469-0.839-2.794-1.203
		c-1.33-0.358-2.305-0.765-2.922-1.222s-0.926-1.124-0.926-2c0-0.871,0.363-1.566,1.091-2.084c0.727-0.518,1.653-0.777,2.781-0.777
		c1.139,0,2.068,0.318,2.79,0.954c0.721,0.636,1.071,1.454,1.05,2.453l-0.017,0.048h-0.368c0-0.871-0.32-1.593-0.962-2.165
		s-1.473-0.858-2.493-0.858c-1.059,0-1.896,0.237-2.513,0.709c-0.617,0.473-0.926,1.041-0.926,1.704s0.255,1.213,0.765,1.651
		c0.511,0.438,1.434,0.828,2.77,1.17c1.294,0.342,2.271,0.76,2.931,1.254c0.66,0.495,0.989,1.196,0.989,2.104
		c0,0.924-0.376,1.652-1.13,2.184s-1.696,0.798-2.83,0.798c-1.17,0-2.178-0.274-3.021-0.822c-0.845-0.548-1.254-1.41-1.227-2.585
		l0.016-0.048h0.361c0,1.058,0.39,1.827,1.17,2.305c0.78,0.479,1.681,0.717,2.701,0.717c1.026,0,1.869-0.235,2.529-0.705
		S465.548,74.766,465.548,74.017z"/>
	<path fill="#BCBEC0" d="M476.113,65.576h-4.249v11.239h-0.433V65.576h-4.249v-0.433h8.931V65.576z"/>
	<path fill="#BCBEC0" d="M484.441,70.947h-5.852v5.435h6.67v0.433h-7.103V65.144h7.103v0.433h-6.67v4.938h5.852V70.947z"/>
	<path fill="#BCBEC0" d="M495.913,76.815h-0.434l-7.487-10.87l-0.048,0.016v10.854h-0.44V65.144h0.44l7.487,10.846l0.048-0.016
		v-10.83h0.434V76.815z"/>
</g>
<g>
	<path fill="#BCBEC0" d="M607.137,231.249h5.988v0.433h-6.429V220.01h0.44V231.249z"/>
	<path fill="#BCBEC0" d="M621.453,225.813h-5.852v5.436h6.67v0.433h-7.103V220.01h7.103v0.434h-6.67v4.938h5.852V225.813z"/>
	<path fill="#BCBEC0" d="M630.665,228.194h-5.708l-1.299,3.487h-0.473l4.361-11.672h0.528l4.369,11.672h-0.473L630.665,228.194z
		 M625.117,227.762h5.388l-2.445-6.573l-0.225-0.657h-0.048l-0.217,0.657L625.117,227.762z"/>
	<path fill="#BCBEC0" d="M634.713,226.207v5.482h-0.433v-11.671h3.719c1.229,0,2.176,0.266,2.838,0.797
		c0.663,0.532,0.994,1.309,0.994,2.329c0,0.657-0.21,1.254-0.629,1.791c-0.42,0.537-0.993,0.887-1.72,1.047
		c0.839,0.144,1.44,0.451,1.804,0.922c0.363,0.47,0.545,1.071,0.545,1.804v1.098c0,0.363,0.044,0.689,0.133,0.979
		c0.088,0.288,0.233,0.523,0.437,0.705v0.2h-0.425c-0.192-0.219-0.337-0.49-0.433-0.813c-0.097-0.323-0.145-0.686-0.145-1.086
		v-1.066c0-0.791-0.271-1.408-0.813-1.852c-0.543-0.443-1.316-0.665-2.321-0.665H634.713z M634.713,225.773h3.206
		c1.192,0,2.069-0.251,2.634-0.753c0.563-0.503,0.846-1.128,0.846-1.876c0-0.871-0.285-1.538-0.854-2
		c-0.569-0.462-1.418-0.693-2.546-0.693h-3.286V225.773z"/>
	<path fill="#BCBEC0" d="M653.471,231.682h-0.434l-7.487-10.87l-0.048,0.017v10.854h-0.44V220.01h0.44l7.487,10.847l0.048-0.017
		v-10.83h0.434V231.682z"/>
</g>
<g>
	<path fill="#BCBEC0" d="M607.137,75.281h5.988v0.433h-6.429V64.043h0.44V75.281z"/>
	<path fill="#BCBEC0" d="M621.453,69.847h-5.852v5.435h6.67v0.433h-7.103V64.043h7.103v0.433h-6.67v4.938h5.852V69.847z"/>
	<path fill="#BCBEC0" d="M630.665,72.228h-5.708l-1.299,3.487h-0.473l4.361-11.671h0.528l4.369,11.671h-0.473L630.665,72.228z
		 M625.117,71.794h5.388l-2.445-6.573l-0.225-0.657h-0.048l-0.217,0.657L625.117,71.794z"/>
	<path fill="#BCBEC0" d="M634.713,70.239v5.483h-0.433V64.051h3.719c1.229,0,2.176,0.266,2.838,0.798
		c0.663,0.532,0.994,1.308,0.994,2.329c0,0.657-0.21,1.254-0.629,1.792c-0.42,0.537-0.993,0.886-1.72,1.046
		c0.839,0.145,1.44,0.452,1.804,0.922c0.363,0.471,0.545,1.072,0.545,1.804v1.098c0,0.364,0.044,0.689,0.133,0.978
		c0.088,0.289,0.233,0.524,0.437,0.706v0.2h-0.425c-0.192-0.219-0.337-0.49-0.433-0.813c-0.097-0.323-0.145-0.686-0.145-1.086
		v-1.066c0-0.791-0.271-1.408-0.813-1.852c-0.543-0.444-1.316-0.666-2.321-0.666H634.713z M634.713,69.807h3.206
		c1.192,0,2.069-0.251,2.634-0.754c0.563-0.502,0.846-1.127,0.846-1.875c0-0.871-0.285-1.538-0.854-2
		c-0.569-0.462-1.418-0.693-2.546-0.693h-3.286V69.807z"/>
	<path fill="#BCBEC0" d="M653.471,75.714h-0.434l-7.487-10.87l-0.048,0.016v10.854h-0.44V64.043h0.44l7.487,10.846l0.048-0.016
		v-10.83h0.434V75.714z"/>
</g>
<g>
	<path fill="#BCBEC0" d="M848.671,231.869c0-0.731-0.269-1.317-0.806-1.755c-0.537-0.438-1.469-0.84-2.794-1.203
		c-1.33-0.357-2.305-0.766-2.922-1.223c-0.617-0.456-0.926-1.123-0.926-2c0-0.871,0.363-1.565,1.091-2.084
		c0.727-0.519,1.653-0.777,2.781-0.777c1.139,0,2.068,0.318,2.79,0.954c0.721,0.636,1.071,1.453,1.05,2.453l-0.017,0.048h-0.368
		c0-0.871-0.32-1.593-0.962-2.164c-0.642-0.572-1.473-0.858-2.493-0.858c-1.059,0-1.896,0.236-2.513,0.71
		c-0.617,0.473-0.926,1.04-0.926,1.703s0.255,1.213,0.765,1.651c0.511,0.438,1.434,0.828,2.77,1.17
		c1.294,0.343,2.271,0.761,2.931,1.255s0.989,1.196,0.989,2.104c0,0.925-0.376,1.652-1.13,2.185
		c-0.754,0.531-1.696,0.797-2.83,0.797c-1.17,0-2.178-0.273-3.021-0.821c-0.845-0.548-1.254-1.409-1.227-2.585l0.016-0.049h0.361
		c0,1.059,0.39,1.827,1.17,2.305c0.78,0.479,1.681,0.718,2.701,0.718c1.026,0,1.869-0.235,2.529-0.705
		C848.341,233.227,848.671,232.617,848.671,231.869z"/>
	<path fill="#BCBEC0" d="M859.789,234.667h-0.433v-5.571h-7.455v5.571h-0.433v-11.672h0.433v5.668h7.455v-5.668h0.433V234.667z"/>
	<path fill="#BCBEC0" d="M869.289,231.18h-5.708l-1.299,3.487h-0.473l4.361-11.672h0.528l4.369,11.672h-0.473L869.289,231.18z
		 M863.741,230.747h5.388l-2.445-6.573l-0.225-0.657h-0.048l-0.217,0.657L863.741,230.747z"/>
	<path fill="#BCBEC0" d="M873.337,229.192v5.482h-0.433v-11.671h3.719c1.229,0,2.176,0.266,2.838,0.797
		c0.663,0.532,0.994,1.309,0.994,2.329c0,0.657-0.21,1.254-0.629,1.791c-0.42,0.537-0.993,0.887-1.72,1.047
		c0.839,0.144,1.44,0.451,1.804,0.922c0.363,0.47,0.545,1.071,0.545,1.804v1.098c0,0.363,0.044,0.689,0.133,0.979
		c0.088,0.288,0.233,0.523,0.437,0.705v0.2H880.6c-0.192-0.219-0.337-0.49-0.433-0.813c-0.097-0.323-0.145-0.686-0.145-1.086v-1.066
		c0-0.791-0.271-1.408-0.813-1.852c-0.543-0.443-1.316-0.665-2.321-0.665H873.337z M873.337,228.759h3.206
		c1.192,0,2.069-0.251,2.634-0.753c0.563-0.503,0.846-1.128,0.846-1.876c0-0.871-0.285-1.538-0.854-2
		c-0.569-0.462-1.418-0.693-2.546-0.693h-3.286V228.759z"/>
	<path fill="#BCBEC0" d="M889.97,228.799h-5.852v5.436h6.67v0.433h-7.103v-11.672h7.103v0.434h-6.67v4.938h5.852V228.799z"/>
</g>
<g>
	<path fill="#BCBEC0" d="M848.671,75.902c0-0.732-0.269-1.317-0.806-1.755c-0.537-0.438-1.469-0.839-2.794-1.203
		c-1.33-0.358-2.305-0.765-2.922-1.222s-0.926-1.124-0.926-2c0-0.871,0.363-1.566,1.091-2.084c0.727-0.518,1.653-0.777,2.781-0.777
		c1.139,0,2.068,0.318,2.79,0.954c0.721,0.636,1.071,1.454,1.05,2.453l-0.017,0.048h-0.368c0-0.871-0.32-1.593-0.962-2.165
		s-1.473-0.858-2.493-0.858c-1.059,0-1.896,0.237-2.513,0.709c-0.617,0.473-0.926,1.041-0.926,1.704s0.255,1.213,0.765,1.651
		c0.511,0.438,1.434,0.828,2.77,1.17c1.294,0.342,2.271,0.76,2.931,1.254c0.66,0.495,0.989,1.196,0.989,2.104
		c0,0.924-0.376,1.652-1.13,2.184s-1.696,0.798-2.83,0.798c-1.17,0-2.178-0.274-3.021-0.822c-0.845-0.548-1.254-1.41-1.227-2.585
		l0.016-0.048h0.361c0,1.058,0.39,1.827,1.17,2.305c0.78,0.479,1.681,0.717,2.701,0.717c1.026,0,1.869-0.235,2.529-0.705
		S848.671,76.651,848.671,75.902z"/>
	<path fill="#BCBEC0" d="M859.789,78.7h-0.433v-5.571h-7.455V78.7h-0.433V67.029h0.433v5.667h7.455v-5.667h0.433V78.7z"/>
	<path fill="#BCBEC0" d="M869.289,75.213h-5.708l-1.299,3.487h-0.473l4.361-11.671h0.528l4.369,11.671h-0.473L869.289,75.213z
		 M863.741,74.78h5.388l-2.445-6.573l-0.225-0.657h-0.048l-0.217,0.657L863.741,74.78z"/>
	<path fill="#BCBEC0" d="M873.337,73.225v5.483h-0.433V67.037h3.719c1.229,0,2.176,0.266,2.838,0.798
		c0.663,0.532,0.994,1.308,0.994,2.329c0,0.657-0.21,1.254-0.629,1.792c-0.42,0.537-0.993,0.886-1.72,1.046
		c0.839,0.145,1.44,0.452,1.804,0.922c0.363,0.471,0.545,1.072,0.545,1.804v1.098c0,0.364,0.044,0.689,0.133,0.978
		c0.088,0.289,0.233,0.524,0.437,0.706v0.2H880.6c-0.192-0.219-0.337-0.49-0.433-0.813c-0.097-0.323-0.145-0.686-0.145-1.086v-1.066
		c0-0.791-0.271-1.408-0.813-1.852c-0.543-0.444-1.316-0.666-2.321-0.666H873.337z M873.337,72.792h3.206
		c1.192,0,2.069-0.251,2.634-0.754c0.563-0.502,0.846-1.127,0.846-1.875c0-0.871-0.285-1.538-0.854-2
		c-0.569-0.462-1.418-0.693-2.546-0.693h-3.286V72.792z"/>
	<path fill="#BCBEC0" d="M889.97,72.833h-5.852v5.435h6.67V78.7h-7.103V67.029h7.103v0.433h-6.67v4.938h5.852V72.833z"/>
</g>
<g>
	<path fill="#F6C25B" d="M188.587,168.486l-24.792,41.177h12.521c2.963,0,6.644-2.076,8.173-4.628l10.546-17.551
		c1.244-2.574,1.204-6.317-0.22-8.689L188.587,168.486z"/>
	<path fill="#0A985C" d="M175.994,147.967c1.575,2.617,1.575,6.905,0,9.533l-28.661,47.917c-1.107,2.369,0.043,4.246,2.888,4.246
		h11.919l25.52-42.389L175.994,147.967z"/>
	<path fill="#5586C5" d="M151.839,96.06c-3.039,0-4.244,2.134-2.683,4.729l46.19,76.73c1.454,2.422,2.696,4.408,1.424,7.036
		l10.538-16.164L163.672,96.06H151.839z"/>
	<path fill="#D9423E" d="M214.687,148.261l-28.526-47.492c-1.576-2.62-5.372-4.776-8.427-4.776H164.83l43.185,71.736l6.672-9.919
		C216.266,155.178,216.266,150.882,214.687,148.261z"/>
</g>
<g>
	<g>
		<path fill="#414042" d="M350.87,169.951"/>
		<path fill="#414042" d="M253.524,146.415h23.121v28.901c-6.281,2.154-13.175,3.222-20.713,3.222
			c-8.251,0-14.632-2.392-19.147-7.179c-4.516-4.788-6.76-11.631-6.76-20.509c0-8.642,2.462-15.366,7.405-20.186
			c4.938-4.823,11.849-7.198,20.747-7.198c3.375,0,6.55,0.304,9.537,0.949c3.009,0.631,5.622,1.427,7.848,2.396l-4.604,11.356
			c-3.854-1.905-8.095-2.854-12.716-2.854c-4.21,0-7.485,1.392-9.794,4.126c-2.326,2.751-3.462,6.67-3.462,11.784
			c0,5.01,1.035,8.828,3.141,11.457c2.069,2.632,5.074,3.927,9.015,3.927c2.157,0,4.142-0.19,5.941-0.617v-8.386h-9.556V146.415z"/>
		<path fill="#414042" d="M315.012,150.392c0-4.926-0.966-8.557-2.901-10.934c-1.937-2.36-4.908-3.55-8.861-3.55h-4.211v30.019
			h3.228c4.412,0,7.637-1.276,9.675-3.836C313.997,159.559,315.012,155.637,315.012,150.392 M330.037,149.882
			c0,8.93-2.443,15.823-7.383,20.662c-4.907,4.838-11.833,7.25-20.746,7.25h-17.333V124.21h18.539
			c8.588,0,15.229,2.209,19.912,6.604C327.712,135.2,330.037,141.564,330.037,149.882"/>
		<path fill="#414042" d="M358.153,146.415h23.142v28.901c-6.284,2.154-13.192,3.222-20.713,3.222
			c-8.252,0-14.635-2.392-19.152-7.179c-4.499-4.788-6.754-11.631-6.754-20.509c0-8.642,2.459-15.366,7.398-20.186
			c4.926-4.823,11.849-7.198,20.748-7.198c3.363,0,6.555,0.304,9.559,0.949c2.971,0.631,5.587,1.427,7.807,2.396l-4.581,11.356
			c-3.854-1.905-8.102-2.854-12.716-2.854c-4.229,0-7.488,1.392-9.813,4.126c-2.294,2.751-3.449,6.67-3.449,11.784
			c0,5.01,1.036,8.828,3.124,11.457c2.088,2.632,5.094,3.927,9.032,3.927c2.155,0,4.144-0.19,5.944-0.617v-8.386h-9.577V146.415z"/>
	</g>
</g>
</svg>
