<?xml version="1.0" encoding="utf-8"?>
<!-- Generator: Adobe Illustrator 16.0.0, SVG Export Plug-In . SVG Version: 6.00 Build 0)  -->
<!DOCTYPE svg PUBLIC "-//W3C//DTD SVG 1.1//EN" "http://www.w3.org/Graphics/SVG/1.1/DTD/svg11.dtd">
<svg version="1.1" id="Layer_1" xmlns="http://www.w3.org/2000/svg" xmlns:xlink="http://www.w3.org/1999/xlink" x="0px" y="0px"
	 width="900px" height="300px" viewBox="0 0 900 300" enable-background="new 0 0 900 300" xml:space="preserve">
<circle fill="#606161" cx="75.345" cy="73.533" r="11.231"/>
<path fill="#606161" d="M86.577,226.494c0,6.205-5.028,11.235-11.231,11.235c-6.202,0-11.231-5.03-11.231-11.235
	c0-6.202,5.029-11.229,11.231-11.229C81.549,215.265,86.577,220.292,86.577,226.494z"/>
<line fill="none" stroke="#606161" stroke-width="2" stroke-miterlimit="10" x1="75.345" y1="73.533" x2="152.494" y2="98.481"/>
<line fill="none" stroke="#606161" stroke-width="2" stroke-miterlimit="10" x1="75.345" y1="226.494" x2="152.494" y2="206.291"/>
<line fill="none" stroke="#606161" stroke-width="2" stroke-miterlimit="10" x1="215.871" y1="152.571" x2="243.471" y2="152.571"/>
<line fill="none" stroke="#606161" stroke-width="2" stroke-miterlimit="10" x1="268.399" y1="152.571" x2="296" y2="152.571"/>
<line fill="none" stroke="#606161" stroke-width="2" stroke-miterlimit="10" x1="317.465" y1="151.001" x2="345.065" y2="151.001"/>
<line fill="none" stroke="#606161" stroke-width="2" stroke-miterlimit="10" x1="370.407" y1="151.001" x2="398.008" y2="151.001"/>
<circle fill="#606161" cx="402.869" cy="151.001" r="11.231"/>
<line fill="none" stroke="#606161" stroke-width="2" stroke-miterlimit="10" x1="402.868" y1="149.758" x2="470.438" y2="198.433"/>
<line fill="none" stroke="#606161" stroke-width="2" stroke-miterlimit="10" x1="404.152" y1="151.001" x2="470.438" y2="98.481"/>
<path fill="#606161" d="M481.67,98.481c0,6.205-5.026,11.232-11.232,11.232c-6.201,0-11.229-5.027-11.229-11.232
	c0-6.201,5.027-11.229,11.229-11.229C476.644,87.252,481.67,92.28,481.67,98.481z"/>
<path fill="#606161" d="M481.67,198.433c0,6.202-5.026,11.23-11.232,11.23c-6.201,0-11.229-5.028-11.229-11.23
	c0-6.203,5.027-11.23,11.229-11.23C476.644,187.202,481.67,192.229,481.67,198.433z"/>
<g>
	<path fill="#414042" d="M525.638,140.558V104.6h12.351c4.396,0,8.018,1.402,10.864,4.211c2.853,2.806,4.273,6.407,4.273,10.805
		v5.953c0,4.412-1.421,8.012-4.273,10.805c-2.847,2.792-6.468,4.185-10.864,4.185H525.638z M532.852,110.153v24.849h4.768
		c2.585,0,4.609-0.871,6.074-2.613c1.466-1.745,2.199-4.025,2.199-6.838v-5.998c0-2.776-0.733-5.041-2.199-6.784
		c-1.465-1.743-3.489-2.617-6.074-2.617H532.852z"/>
	<path fill="#414042" d="M580.89,124.754h-14.892v10.248h17.41v5.557h-24.627V104.6h24.577v5.553h-17.36v9.042h14.892V124.754z"/>
	<path fill="#414042" d="M600.03,131.002l0.448,1.95h0.145l0.421-1.901l7.834-26.452h7.603l-12.226,35.958h-7.411L584.641,104.6
		h7.608L600.03,131.002z"/>
	<path fill="#414042" d="M642.292,125.616h-15.068v14.942h-7.213V104.6h24.801v5.553h-17.588v9.907h15.068V125.616z"/>
	<path fill="#414042" d="M671.311,124.754h-14.896v10.248h17.413v5.557h-24.623V104.6h24.581v5.553h-17.371v9.042h14.896V124.754z"
		/>
	<path fill="#414042" d="M697.663,131.173c0-1.384-0.491-2.494-1.466-3.335c-0.98-0.838-2.697-1.627-5.154-2.37
		c-4.277-1.235-7.512-2.701-9.707-4.396c-2.189-1.696-3.28-4.017-3.28-6.962c0-2.948,1.253-5.357,3.763-7.226
		c2.516-1.87,5.72-2.804,9.624-2.804c3.95,0,7.173,1.048,9.654,3.149c2.491,2.1,3.687,4.689,3.607,7.768l-0.048,0.147h-6.993
		c0-1.664-0.554-3.007-1.664-4.038c-1.109-1.029-2.673-1.544-4.683-1.544c-1.926,0-3.413,0.428-4.468,1.286
		c-1.055,0.854-1.58,1.95-1.58,3.283c0,1.22,0.562,2.223,1.688,3.001c1.128,0.783,3.076,1.611,5.847,2.483
		c3.965,1.103,6.967,2.562,9.014,4.373c2.04,1.81,3.061,4.188,3.061,7.137c0,3.079-1.217,5.509-3.644,7.286
		c-2.426,1.779-5.631,2.666-9.621,2.666c-3.917,0-7.333-1.007-10.247-3.026c-2.915-2.016-4.335-4.843-4.251-8.482l0.052-0.15h7.017
		c0,2.142,0.65,3.71,1.961,4.706c1.309,0.999,3.132,1.494,5.469,1.494c1.965,0,3.456-0.401,4.501-1.206
		C697.146,133.601,697.663,132.524,697.663,131.173z"/>
	<path fill="#414042" d="M735.185,110.153H725.01v30.405h-7.216v-30.405h-10.128V104.6h27.519V110.153z"/>
	<path fill="#414042" d="M543.457,179.001H532.58l-1.944,6.705h-8.054l11.136-34.493h8.601l11.153,34.493h-8.054L543.457,179.001z
		 M534.356,172.841h7.323l-3.604-12.343h-0.145L534.356,172.841z"/>
	<path fill="#414042" d="M563.949,172.486v13.22h-8.033v-34.493h13.262c4,0,7.165,0.923,9.504,2.771
		c2.337,1.848,3.505,4.373,3.505,7.581c0,1.786-0.468,3.318-1.411,4.597c-0.938,1.28-2.324,2.322-4.153,3.126
		c2.114,0.601,3.634,1.601,4.563,2.998c0.921,1.399,1.382,3.139,1.382,5.222v2.18c0,0.9,0.134,1.93,0.403,3.081
		c0.268,1.153,0.734,1.975,1.397,2.464v0.475h-8.245c-0.632-0.49-1.046-1.359-1.243-2.607c-0.199-1.247-0.294-2.401-0.294-3.458
		v-2.084c0-1.644-0.438-2.899-1.302-3.767c-0.875-0.869-2.142-1.303-3.818-1.303H563.949z M563.949,166.324h5.281
		c1.611,0,2.839-0.367,3.692-1.1c0.854-0.733,1.282-1.788,1.282-3.162c0-1.405-0.442-2.54-1.313-3.4
		c-0.879-0.86-2.118-1.29-3.714-1.29h-5.229V166.324z"/>
	<path fill="#414042" d="M598.464,151.213l7.728,24.141h0.142l7.813-24.141h10.567v34.493h-8.03v-8.553l0.757-15.754l-0.141-0.023
		l-8.315,24.33h-5.402l-8.222-24.117l-0.146,0.023l0.761,15.541v8.553h-8.03v-34.493H598.464z"/>
	<path fill="#414042" d="M651.672,170.946h-13.528v8.6h15.949v6.16h-23.979v-34.493h24.021v6.159h-15.992v7.416h13.528V170.946z"/>
	<path fill="#414042" d="M686.501,185.706h-7.985l-12.631-21.986l-0.142,0.047v21.939h-8.027v-34.493h8.027l12.629,21.984
		l0.144-0.046v-21.938h7.985V185.706z"/>
	<path fill="#414042" d="M700.452,185.706h-7.985v-34.493h7.985V185.706z"/>
	<path fill="#414042" d="M725.161,179.001h-10.874l-1.942,6.705h-8.056l11.138-34.493h8.6l11.158,34.493h-8.058L725.161,179.001z
		 M716.065,172.841h7.318l-3.602-12.343h-0.141L716.065,172.841z"/>
</g>
<line fill="none" stroke="#606161" stroke-width="2" stroke-miterlimit="10" x1="470.438" y1="98.481" x2="498.04" y2="98.481"/>
<line fill="none" stroke="#606161" stroke-width="2" stroke-miterlimit="10" x1="470.438" y1="198.433" x2="498.04" y2="198.433"/>
<circle fill="#606161" cx="823.431" cy="73.533" r="11.231"/>
<path fill="#606161" d="M812.2,226.494c0,6.205,5.03,11.233,11.23,11.233c6.205,0,11.231-5.028,11.231-11.233
	c0-6.2-5.026-11.229-11.231-11.229C817.23,215.265,812.2,220.294,812.2,226.494z"/>
<line fill="none" stroke="#606161" stroke-width="2" stroke-miterlimit="10" x1="823.431" y1="73.533" x2="761.049" y2="114.372"/>
<line fill="none" stroke="#606161" stroke-width="2" stroke-miterlimit="10" x1="823.431" y1="226.494" x2="761.049" y2="181.456"/>
<line fill="none" stroke="#606161" stroke-width="2" stroke-miterlimit="10" x1="761.049" y1="87.826" x2="761.049" y2="208.108"/>
<line fill="none" stroke="#606161" stroke-width="2" stroke-miterlimit="10" x1="498.04" y1="87.387" x2="498.04" y2="207.668"/>
<g>
	<line fill="none" stroke="#606161" stroke-miterlimit="10" x1="498.04" y1="100.936" x2="516.406" y2="100.936"/>
	<line fill="none" stroke="#606161" stroke-miterlimit="10" x1="498.046" y1="104.152" x2="516.412" y2="104.152"/>
	<line fill="none" stroke="#606161" stroke-miterlimit="10" x1="498.044" y1="107.439" x2="516.409" y2="107.439"/>
	<line fill="none" stroke="#606161" stroke-miterlimit="10" x1="498.05" y1="110.656" x2="516.415" y2="110.656"/>
	<line fill="none" stroke="#606161" stroke-miterlimit="10" x1="498.044" y1="114.557" x2="516.409" y2="114.557"/>
	<line fill="none" stroke="#606161" stroke-miterlimit="10" x1="498.05" y1="117.773" x2="516.415" y2="117.773"/>
	<line fill="none" stroke="#606161" stroke-miterlimit="10" x1="498.046" y1="121.061" x2="516.412" y2="121.061"/>
	<line fill="none" stroke="#606161" stroke-miterlimit="10" x1="498.052" y1="124.277" x2="516.418" y2="124.277"/>
	<line fill="none" stroke="#606161" stroke-miterlimit="10" x1="498.044" y1="127.165" x2="516.409" y2="127.165"/>
	<line fill="none" stroke="#606161" stroke-miterlimit="10" x1="498.05" y1="130.38" x2="516.415" y2="130.38"/>
	<line fill="none" stroke="#606161" stroke-miterlimit="10" x1="498.046" y1="133.669" x2="516.412" y2="133.669"/>
	<line fill="none" stroke="#606161" stroke-miterlimit="10" x1="498.052" y1="136.887" x2="516.418" y2="136.887"/>
	<line fill="none" stroke="#606161" stroke-miterlimit="10" x1="498.046" y1="140.788" x2="516.412" y2="140.788"/>
	<line fill="none" stroke="#606161" stroke-miterlimit="10" x1="498.052" y1="144.004" x2="516.418" y2="144.004"/>
	<line fill="none" stroke="#606161" stroke-miterlimit="10" x1="498.05" y1="147.291" x2="516.415" y2="147.291"/>
	<line fill="none" stroke="#606161" stroke-miterlimit="10" x1="498.055" y1="150.509" x2="516.421" y2="150.509"/>
	<line fill="none" stroke="#606161" stroke-miterlimit="10" x1="498.044" y1="153.466" x2="516.409" y2="153.466"/>
	<line fill="none" stroke="#606161" stroke-miterlimit="10" x1="498.05" y1="156.686" x2="516.415" y2="156.686"/>
	<line fill="none" stroke="#606161" stroke-miterlimit="10" x1="498.046" y1="159.974" x2="516.412" y2="159.974"/>
	<line fill="none" stroke="#606161" stroke-miterlimit="10" x1="498.052" y1="163.188" x2="516.418" y2="163.188"/>
	<line fill="none" stroke="#606161" stroke-miterlimit="10" x1="498.046" y1="167.091" x2="516.412" y2="167.091"/>
	<line fill="none" stroke="#606161" stroke-miterlimit="10" x1="498.052" y1="170.307" x2="516.418" y2="170.307"/>
	<line fill="none" stroke="#606161" stroke-miterlimit="10" x1="498.05" y1="173.595" x2="516.415" y2="173.595"/>
	<line fill="none" stroke="#606161" stroke-miterlimit="10" x1="498.055" y1="176.811" x2="516.421" y2="176.811"/>
	<line fill="none" stroke="#606161" stroke-miterlimit="10" x1="498.046" y1="179.699" x2="516.412" y2="179.699"/>
	<line fill="none" stroke="#606161" stroke-miterlimit="10" x1="498.052" y1="182.914" x2="516.418" y2="182.914"/>
	<line fill="none" stroke="#606161" stroke-miterlimit="10" x1="498.05" y1="186.202" x2="516.415" y2="186.202"/>
	<line fill="none" stroke="#606161" stroke-miterlimit="10" x1="498.055" y1="189.419" x2="516.421" y2="189.419"/>
	<line fill="none" stroke="#606161" stroke-miterlimit="10" x1="498.05" y1="193.321" x2="516.415" y2="193.321"/>
	<line fill="none" stroke="#606161" stroke-miterlimit="10" x1="498.055" y1="196.538" x2="516.421" y2="196.538"/>
</g>
<g>
	<line fill="none" stroke="#606161" stroke-miterlimit="10" x1="742.651" y1="99.489" x2="761.021" y2="99.489"/>
	<line fill="none" stroke="#606161" stroke-miterlimit="10" x1="742.657" y1="102.705" x2="761.026" y2="102.705"/>
	<line fill="none" stroke="#606161" stroke-miterlimit="10" x1="742.654" y1="105.994" x2="761.026" y2="105.994"/>
	<line fill="none" stroke="#606161" stroke-miterlimit="10" x1="742.662" y1="109.21" x2="761.029" y2="109.21"/>
	<line fill="none" stroke="#606161" stroke-miterlimit="10" x1="742.654" y1="113.111" x2="761.026" y2="113.111"/>
	<line fill="none" stroke="#606161" stroke-miterlimit="10" x1="742.662" y1="116.327" x2="761.029" y2="116.327"/>
	<line fill="none" stroke="#606161" stroke-miterlimit="10" x1="742.657" y1="119.615" x2="761.029" y2="119.615"/>
	<line fill="none" stroke="#606161" stroke-miterlimit="10" x1="742.665" y1="122.832" x2="761.031" y2="122.832"/>
	<line fill="none" stroke="#606161" stroke-miterlimit="10" x1="742.654" y1="125.719" x2="761.026" y2="125.719"/>
	<line fill="none" stroke="#606161" stroke-miterlimit="10" x1="742.662" y1="128.934" x2="761.029" y2="128.934"/>
	<line fill="none" stroke="#606161" stroke-miterlimit="10" x1="742.657" y1="132.223" x2="761.029" y2="132.223"/>
	<line fill="none" stroke="#606161" stroke-miterlimit="10" x1="742.665" y1="135.439" x2="761.031" y2="135.439"/>
	<line fill="none" stroke="#606161" stroke-miterlimit="10" x1="742.657" y1="139.342" x2="761.029" y2="139.342"/>
	<line fill="none" stroke="#606161" stroke-miterlimit="10" x1="742.665" y1="142.559" x2="761.031" y2="142.559"/>
	<line fill="none" stroke="#606161" stroke-miterlimit="10" x1="742.662" y1="145.845" x2="761.031" y2="145.845"/>
	<line fill="none" stroke="#606161" stroke-miterlimit="10" x1="742.666" y1="149.063" x2="761.033" y2="149.063"/>
	<line fill="none" stroke="#606161" stroke-miterlimit="10" x1="742.654" y1="152.021" x2="761.026" y2="152.021"/>
	<line fill="none" stroke="#606161" stroke-miterlimit="10" x1="742.662" y1="155.238" x2="761.029" y2="155.238"/>
	<line fill="none" stroke="#606161" stroke-miterlimit="10" x1="742.657" y1="158.526" x2="761.029" y2="158.526"/>
	<line fill="none" stroke="#606161" stroke-miterlimit="10" x1="742.665" y1="161.743" x2="761.031" y2="161.743"/>
	<line fill="none" stroke="#606161" stroke-miterlimit="10" x1="742.657" y1="165.645" x2="761.029" y2="165.645"/>
	<line fill="none" stroke="#606161" stroke-miterlimit="10" x1="742.665" y1="168.861" x2="761.031" y2="168.861"/>
	<line fill="none" stroke="#606161" stroke-miterlimit="10" x1="742.662" y1="172.149" x2="761.031" y2="172.149"/>
	<line fill="none" stroke="#606161" stroke-miterlimit="10" x1="742.666" y1="175.365" x2="761.033" y2="175.365"/>
	<line fill="none" stroke="#606161" stroke-miterlimit="10" x1="742.657" y1="178.253" x2="761.029" y2="178.253"/>
	<line fill="none" stroke="#606161" stroke-miterlimit="10" x1="742.665" y1="181.468" x2="761.031" y2="181.468"/>
	<line fill="none" stroke="#606161" stroke-miterlimit="10" x1="742.662" y1="184.756" x2="761.031" y2="184.756"/>
	<line fill="none" stroke="#606161" stroke-miterlimit="10" x1="742.666" y1="187.973" x2="761.033" y2="187.973"/>
	<line fill="none" stroke="#606161" stroke-miterlimit="10" x1="742.662" y1="191.874" x2="761.031" y2="191.874"/>
	<line fill="none" stroke="#606161" stroke-miterlimit="10" x1="742.666" y1="195.092" x2="761.033" y2="195.092"/>
</g>
<text transform="matrix(1 0 0 1 8.5654 232.7842)" fill="#BCBEC0" font-family="'Roboto-Thin'" font-size="16.4172">ENTER</text>
<text transform="matrix(1 0 0 1 8.5654 80.9258)" fill="#BCBEC0" font-family="'Roboto-Thin'" font-size="16.4172">ENTER</text>
<text transform="matrix(0 -1 1 0 409.0801 225.5088)" fill="#BCBEC0" font-family="'Roboto-Thin'" font-size="16.4172">MEET</text>
<text transform="matrix(0 -1 1 0 407.439 124.2085)" fill="#BCBEC0" font-family="'Roboto-Thin'" font-size="16.4172">DISCUSS</text>
<text transform="matrix(1 0 0 1 444.1851 232.7822)" fill="#BCBEC0" font-family="'Roboto-Thin'" font-size="16.4172">LISTEN</text>
<text transform="matrix(1 0 0 1 444.1851 76.8149)" fill="#BCBEC0" font-family="'Roboto-Thin'" font-size="16.4172">LISTEN</text>
<text transform="matrix(1 0 0 1 605.0928 231.6816)" fill="#BCBEC0" font-family="'Roboto-Thin'" font-size="16.4172">LEARN</text>
<text transform="matrix(1 0 0 1 605.0928 75.7144)" fill="#BCBEC0" font-family="'Roboto-Thin'" font-size="16.4172">LEARN</text>
<text transform="matrix(1 0 0 1 847.0674 234.667)" fill="#BCBEC0" font-family="'Roboto-Thin'" font-size="16.4172">LEAVE</text>
<text transform="matrix(1 0 0 1 847.0674 78.7002)" fill="#BCBEC0" font-family="'Roboto-Thin'" font-size="16.4172">LEAVE</text>
<g>
	<path fill="#F6C25B" d="M188.587,168.486l-24.792,41.177h12.521c2.963,0,6.644-2.076,8.173-4.628l10.546-17.551
		c1.244-2.574,1.204-6.317-0.22-8.689L188.587,168.486z"/>
	<path fill="#0A985C" d="M175.994,147.967c1.575,2.617,1.575,6.905,0,9.533l-28.661,47.917c-1.107,2.369,0.043,4.246,2.888,4.246
		h11.919l25.52-42.389L175.994,147.967z"/>
	<path fill="#5586C5" d="M151.839,96.06c-3.039,0-4.244,2.134-2.683,4.729l46.19,76.73c1.454,2.422,2.696,4.408,1.424,7.036
		l10.538-16.164L163.672,96.06H151.839z"/>
	<path fill="#D9423E" d="M214.687,148.261l-28.526-47.492c-1.576-2.62-5.372-4.776-8.427-4.776H164.83l43.185,71.736l6.672-9.919
		C216.266,155.178,216.266,150.882,214.687,148.261z"/>
</g>
<g>
	<g>
		<path fill="#414042" d="M350.87,169.951"/>
		<path fill="#414042" d="M253.524,146.415h23.121v28.901c-6.281,2.154-13.175,3.222-20.713,3.222
			c-8.251,0-14.632-2.392-19.147-7.179c-4.516-4.788-6.76-11.631-6.76-20.509c0-8.642,2.462-15.366,7.405-20.186
			c4.938-4.823,11.849-7.198,20.747-7.198c3.375,0,6.55,0.304,9.537,0.949c3.009,0.631,5.622,1.427,7.848,2.396l-4.604,11.356
			c-3.854-1.905-8.095-2.854-12.716-2.854c-4.21,0-7.485,1.392-9.794,4.126c-2.326,2.751-3.462,6.67-3.462,11.784
			c0,5.01,1.035,8.828,3.141,11.457c2.069,2.632,5.074,3.927,9.015,3.927c2.157,0,4.142-0.19,5.941-0.617v-8.386h-9.556V146.415z"/>
		<path fill="#414042" d="M315.012,150.392c0-4.926-0.966-8.557-2.901-10.934c-1.937-2.36-4.908-3.55-8.861-3.55h-4.211v30.019
			h3.228c4.412,0,7.637-1.276,9.675-3.836C313.997,159.559,315.012,155.637,315.012,150.392 M330.037,149.882
			c0,8.93-2.443,15.823-7.383,20.662c-4.907,4.838-11.833,7.25-20.746,7.25h-17.333V124.21h18.539
			c8.588,0,15.229,2.209,19.912,6.604C327.712,135.2,330.037,141.564,330.037,149.882"/>
		<path fill="#414042" d="M358.153,146.415h23.142v28.901c-6.284,2.154-13.192,3.222-20.713,3.222
			c-8.252,0-14.635-2.392-19.152-7.179c-4.499-4.788-6.754-11.631-6.754-20.509c0-8.642,2.459-15.366,7.398-20.186
			c4.926-4.823,11.849-7.198,20.748-7.198c3.363,0,6.555,0.304,9.559,0.949c2.971,0.631,5.587,1.427,7.807,2.396l-4.581,11.356
			c-3.854-1.905-8.102-2.854-12.716-2.854c-4.229,0-7.488,1.392-9.813,4.126c-2.294,2.751-3.449,6.67-3.449,11.784
			c0,5.01,1.036,8.828,3.124,11.457c2.088,2.632,5.094,3.927,9.032,3.927c2.155,0,4.144-0.19,5.944-0.617v-8.386h-9.577V146.415z"/>
	</g>
</g>
</svg>
